<svg ed:vSpacing="30" width="1154" id="page100" xmlns="http://www.w3.org/2000/svg" height="1762" xmlns:xlink="http://www.w3.org/1999/xlink" ed:name="页面-1" viewBox="0 0 1154 1762" xmlns:ev="http://www.w3.org/2001/xml-events" ed:hSpacing="30" xmlns:ed="https://www.edrawsoft.cn/xml/2017/SVGExtensions/"><style type="text/css"><![CDATA[
g[ed\:togtopicid],g[ed\:hyperlink],g[ed\:comment],g[ed\:note] {cursor:pointer;}
g[id] {-moz-user-select: none;-ms-user-select: none;user-select: none;}
svg text::selection,svg tspan::selection{background-color: #4285f4;color: #ffffff;fill: #ffffff;}
.st4 {fill:#0000ff;font-family:;font-size:9pt}
.st2 {fill:#303030;font-family:微软雅黑;font-size:12pt}
.st3 {fill:#454545;font-family:微软雅黑;font-size:10pt}
.st1 {fill:#ffffff;font-family:微软雅黑;font-size:14pt}
.st5 {font-family:SimSun;text-decoration:underline}
]]></style><defs/><rect width="1154" fill="#ffffff" height="1762" x="0" y="0"/><path d="M-34.5,367.1C6.9,225.5,-42.8,-395.6,55.5,-395.6" id="103" fill="none" ed:parentid="101" stroke="#696969" transform="matrix(1,0,0,1,126.5,482.88)" ed:tosuperid="102" stroke-linecap="round" stroke-linejoin="round"/><path d="M-13.5,21.9C2.1,21.9,-5.8,-21.9,13.5,-21.9" id="105" fill="none" ed:parentid="102" stroke="#696969" transform="matrix(1,0,0,1,298.5,65.38)" ed:tosuperid="104" stroke-linecap="round" stroke-linejoin="round"/><path d="M-13.5,6.4C-1.2,6.4,1.9,-6.4,13.5,-6.4" id="107" fill="none" ed:parentid="102" stroke="#696969" transform="matrix(1,0,0,1,298.5,80.88)" ed:tosuperid="106" stroke-linecap="round" stroke-linejoin="round"/><path d="M-13.5,-21.6C2.1,-21.6,-5.7,21.6,13.5,21.6" id="109" fill="none" ed:parentid="102" stroke="#696969" transform="matrix(1,0,0,1,298.5,108.88)" ed:tosuperid="108" stroke-linecap="round" stroke-linejoin="round"/><path d="M-32,269.9C5,151.1,-40.8,-298.4,55.5,-298.4" id="111" fill="none" ed:parentid="101" stroke="#696969" transform="matrix(1,0,0,1,126.5,580.13)" ed:tosuperid="110" stroke-linecap="round" stroke-linejoin="round"/><path d="M-13.5,34.4C4.1,34.4,-10.5,-34.4,13.5,-34.4" id="113" fill="none" ed:parentid="110" stroke="#696969" transform="matrix(1,0,0,1,298.5,247.38)" ed:tosuperid="112" stroke-linecap="round" stroke-linejoin="round"/><path d="M-13.5,1.6C-2.3,1.6,4.5,-1.6,13.5,-1.6" id="115" fill="none" ed:parentid="110" stroke="#696969" transform="matrix(1,0,0,1,298.5,280.13)" ed:tosuperid="114" stroke-linecap="round" stroke-linejoin="round"/><path d="M-13.5,17.3C1.2,17.3,-3.7,-17.3,13.5,-17.3" id="117" fill="none" ed:parentid="114" stroke="#696969" transform="matrix(1,0,0,1,425.5,261.25)" ed:tosuperid="116" stroke-linecap="round" stroke-linejoin="round"/><path d="M-13.5,-38.9C4.6,-38.9,-11.7,38.9,13.5,38.9" id="119" fill="none" ed:parentid="110" stroke="#696969" transform="matrix(1,0,0,1,298.5,320.63)" ed:tosuperid="118" stroke-linecap="round" stroke-linejoin="round"/><path d="M-13.5,7.8C-0.9,7.8,1.2,-7.8,13.5,-7.8" id="121" fill="none" ed:parentid="118" stroke="#696969" transform="matrix(1,0,0,1,430.5,351.75)" ed:tosuperid="120" stroke-linecap="round" stroke-linejoin="round"/><path d="M-13.5,-7.8C-0.9,-7.8,1.2,7.8,13.5,7.8" id="123" fill="none" ed:parentid="118" stroke="#696969" transform="matrix(1,0,0,1,430.5,367.25)" ed:tosuperid="122" stroke-linecap="round" stroke-linejoin="round"/><path d="M-13.5,-17.3C1.2,-17.3,-3.7,17.3,13.5,17.3" id="127" fill="none" ed:parentid="114" stroke="#696969" transform="matrix(1,0,0,1,425.5,295.75)" ed:tosuperid="126" stroke-linecap="round" stroke-linejoin="round"/><path d="M-13.5,3C-2,3,3.8,-3,13.5,-3" id="129" fill="none" ed:parentid="108" stroke="#696969" transform="matrix(1,0,0,1,392.5,127.5)" ed:tosuperid="128" stroke-linecap="round" stroke-linejoin="round"/><path d="M-26.8,130.9C0.1,52.7,-28.9,-159.4,55.5,-159.4" id="131" fill="none" ed:parentid="101" stroke="#696969" transform="matrix(1,0,0,1,126.5,719.13)" ed:tosuperid="130" stroke-linecap="round" stroke-linejoin="round"/><path d="M-13.5,63.6C5.4,63.6,-13.5,-63.6,13.5,-63.6" id="133" fill="none" ed:parentid="130" stroke="#696969" transform="matrix(1,0,0,1,298.5,496.13)" ed:tosuperid="132" stroke-linecap="round" stroke-linejoin="round"/><path d="M-13.5,0C-2.7,0,5.4,0,13.5,0" id="135" fill="none" ed:parentid="132" stroke="#696969" transform="matrix(1,0,0,1,471.5,432.5)" ed:tosuperid="134" stroke-linecap="round" stroke-linejoin="round"/><path d="M-13.5,48.1C5.3,48.1,-13.2,-48.1,13.5,-48.1" id="137" fill="none" ed:parentid="130" stroke="#696969" transform="matrix(1,0,0,1,298.5,511.63)" ed:tosuperid="136" stroke-linecap="round" stroke-linejoin="round"/><path d="M-13.5,0C-2.7,0,5.4,0,13.5,0" id="139" fill="none" ed:parentid="136" stroke="#696969" transform="matrix(1,0,0,1,504.5,463.5)" ed:tosuperid="138" stroke-linecap="round" stroke-linejoin="round"/><path d="M-13.5,9.4C-0.5,9.4,0.3,-9.4,13.5,-9.4" id="141" fill="none" ed:parentid="130" stroke="#696969" transform="matrix(1,0,0,1,298.5,550.38)" ed:tosuperid="140" stroke-linecap="round" stroke-linejoin="round"/><path d="M-13.5,23.3C2.4,23.3,-6.4,-23.3,13.5,-23.3" id="143" fill="none" ed:parentid="140" stroke="#696969" transform="matrix(1,0,0,1,434.5,517.75)" ed:tosuperid="142" stroke-linecap="round" stroke-linejoin="round"/><path d="M-13.5,7.8C-0.9,7.8,1.2,-7.8,13.5,-7.8" id="145" fill="none" ed:parentid="140" stroke="#696969" transform="matrix(1,0,0,1,434.5,533.25)" ed:tosuperid="144" stroke-linecap="round" stroke-linejoin="round"/><path d="M-13.5,-7.8C-0.9,-7.8,1.2,7.8,13.5,7.8" id="147" fill="none" ed:parentid="140" stroke="#696969" transform="matrix(1,0,0,1,434.5,548.75)" ed:tosuperid="146" stroke-linecap="round" stroke-linejoin="round"/><path d="M-13.5,-23.3C2.4,-23.3,-6.4,23.3,13.5,23.3" id="149" fill="none" ed:parentid="140" stroke="#696969" transform="matrix(1,0,0,1,434.5,564.25)" ed:tosuperid="148" stroke-linecap="round" stroke-linejoin="round"/><path d="M-13.5,-52.6C5.4,-52.6,-13.5,52.6,13.5,52.6" id="151" fill="none" ed:parentid="130" stroke="#696969" transform="matrix(1,0,0,1,298.5,612.38)" ed:tosuperid="150" stroke-linecap="round" stroke-linejoin="round"/><path d="M-13.5,7.8C-0.9,7.8,1.2,-7.8,13.5,-7.8" id="153" fill="none" ed:parentid="150" stroke="#696969" transform="matrix(1,0,0,1,369.5,657.25)" ed:tosuperid="152" stroke-linecap="round" stroke-linejoin="round"/><path d="M-13.5,-7.8C-0.9,-7.8,1.2,7.8,13.5,7.8" id="155" fill="none" ed:parentid="150" stroke="#696969" transform="matrix(1,0,0,1,369.5,672.75)" ed:tosuperid="154" stroke-linecap="round" stroke-linejoin="round"/><path d="M-13.5,-23.3C2.4,-23.3,-6.4,23.3,13.5,23.3" id="157" fill="none" ed:parentid="150" stroke="#696969" transform="matrix(1,0,0,1,369.5,688.25)" ed:tosuperid="156" stroke-linecap="round" stroke-linejoin="round"/><path d="M-13.5,-12.5C0.2,-12.5,-1.3,12.5,13.5,12.5" id="159" fill="none" ed:parentid="108" stroke="#696969" transform="matrix(1,0,0,1,392.5,143)" ed:tosuperid="158" stroke-linecap="round" stroke-linejoin="round"/><path d="M-13.5,23.3C2.4,23.3,-6.4,-23.3,13.5,-23.3" id="163" fill="none" ed:parentid="150" stroke="#696969" transform="matrix(1,0,0,1,369.5,641.75)" ed:tosuperid="162" stroke-linecap="round" stroke-linejoin="round"/><path d="M-13.5,0C-2.7,0,5.4,0,13.5,0" id="165" fill="none" ed:parentid="142" stroke="#696969" transform="matrix(1,0,0,1,531.5,494.5)" ed:tosuperid="164" stroke-linecap="round" stroke-linejoin="round"/><path d="M-7.5,6.2C11.9,-6.5,28.5,-22.1,55.5,-22.1" id="167" fill="none" ed:parentid="101" stroke="#696969" transform="matrix(1,0,0,1,126.5,856.38)" ed:tosuperid="166" stroke-linecap="round" stroke-linejoin="round"/><path d="M-13.5,17.1C1.2,17.1,-3.6,-17.1,13.5,-17.1" id="169" fill="none" ed:parentid="166" stroke="#696969" transform="matrix(1,0,0,1,298.5,817.13)" ed:tosuperid="168" stroke-linecap="round" stroke-linejoin="round"/><path d="M-13.5,-21.6C2.1,-21.6,-5.7,21.6,13.5,21.6" id="171" fill="none" ed:parentid="166" stroke="#696969" transform="matrix(1,0,0,1,298.5,855.88)" ed:tosuperid="170" stroke-linecap="round" stroke-linejoin="round"/><path d="M-13.5,-44.9C5.1,-44.9,-12.8,44.9,13.5,44.9" id="173" fill="none" ed:parentid="166" stroke="#696969" transform="matrix(1,0,0,1,298.5,879.13)" ed:tosuperid="172" stroke-linecap="round" stroke-linejoin="round"/><path d="M-13.5,15.5C0.8,15.5,-2.8,-15.5,13.5,-15.5" id="175" fill="none" ed:parentid="168" stroke="#696969" transform="matrix(1,0,0,1,395.5,784.5)" ed:tosuperid="174" stroke-linecap="round" stroke-linejoin="round"/><path d="M-13.5,0C-2.7,0,5.4,0,13.5,0" id="177" fill="none" ed:parentid="168" stroke="#696969" transform="matrix(1,0,0,1,395.5,800)" ed:tosuperid="176" stroke-linecap="round" stroke-linejoin="round"/><path d="M-13.5,7.8C-0.9,7.8,1.2,-7.8,13.5,-7.8" id="179" fill="none" ed:parentid="170" stroke="#696969" transform="matrix(1,0,0,1,395.5,869.75)" ed:tosuperid="178" stroke-linecap="round" stroke-linejoin="round"/><path d="M-13.5,-15.5C0.8,-15.5,-2.8,15.5,13.5,15.5" id="181" fill="none" ed:parentid="168" stroke="#696969" transform="matrix(1,0,0,1,395.5,815.5)" ed:tosuperid="180" stroke-linecap="round" stroke-linejoin="round"/><path d="M-13.5,-7.8C-0.9,-7.8,1.2,7.8,13.5,7.8" id="183" fill="none" ed:parentid="170" stroke="#696969" transform="matrix(1,0,0,1,395.5,885.25)" ed:tosuperid="182" stroke-linecap="round" stroke-linejoin="round"/><path d="M-13.5,1.3C-2.7,1.3,5.4,-1.3,13.5,-1.3" id="185" fill="none" ed:parentid="182" stroke="#696969" transform="matrix(1,0,0,1,557.5,891.75)" ed:tosuperid="184" stroke-linecap="round" stroke-linejoin="round"/><path d="M-13.5,0C-2.7,0,5.4,0,13.5,0" id="187" fill="none" ed:parentid="172" stroke="#696969" transform="matrix(1,0,0,1,395.5,924)" ed:tosuperid="186" stroke-linecap="round" stroke-linejoin="round"/><path d="M-13.5,0C-2.7,0,5.4,0,13.5,0" id="189" fill="none" ed:parentid="186" stroke="#696969" transform="matrix(1,0,0,1,543.5,924)" ed:tosuperid="188" stroke-linecap="round" stroke-linejoin="round"/><path d="M-18.2,-37.1C1.6,1.5,7.9,65.6,55.5,65.6" id="191" fill="none" ed:parentid="101" stroke="#696969" transform="matrix(1,0,0,1,126.5,944.13)" ed:tosuperid="190" stroke-linecap="round" stroke-linejoin="round"/><path d="M-13.5,14.1C0.5,14.1,-2.1,-14.1,13.5,-14.1" id="193" fill="none" ed:parentid="190" stroke="#696969" transform="matrix(1,0,0,1,286.5,995.63)" ed:tosuperid="192" stroke-linecap="round" stroke-linejoin="round"/><path d="M-13.5,-10.9C-0.2,-10.9,-0.5,10.9,13.5,10.9" id="195" fill="none" ed:parentid="190" stroke="#696969" transform="matrix(1,0,0,1,286.5,1020.63)" ed:tosuperid="194" stroke-linecap="round" stroke-linejoin="round"/><path d="M-13.5,-26.4C2.9,-26.4,-7.7,26.4,13.5,26.4" id="197" fill="none" ed:parentid="190" stroke="#696969" transform="matrix(1,0,0,1,286.5,1036.13)" ed:tosuperid="196" stroke-linecap="round" stroke-linejoin="round"/><path d="M-26,-114.1C-0.5,-41.9,-24.2,142.6,55.5,142.6" id="199" fill="none" ed:parentid="101" stroke="#696969" transform="matrix(1,0,0,1,126.5,1021.13)" ed:tosuperid="198" stroke-linecap="round" stroke-linejoin="round"/><path d="M-13.5,21.9C2.1,21.9,-5.8,-21.9,13.5,-21.9" id="201" fill="none" ed:parentid="198" stroke="#696969" transform="matrix(1,0,0,1,289.5,1141.88)" ed:tosuperid="200" stroke-linecap="round" stroke-linejoin="round"/><path d="M-13.5,6.4C-1.2,6.4,1.9,-6.4,13.5,-6.4" id="203" fill="none" ed:parentid="198" stroke="#696969" transform="matrix(1,0,0,1,289.5,1157.38)" ed:tosuperid="202" stroke-linecap="round" stroke-linejoin="round"/><path d="M-13.5,-9.1C-0.6,-9.1,0.4,9.1,13.5,9.1" id="205" fill="none" ed:parentid="198" stroke="#696969" transform="matrix(1,0,0,1,289.5,1172.88)" ed:tosuperid="204" stroke-linecap="round" stroke-linejoin="round"/><path d="M-13.5,-34.1C4.1,-34.1,-10.4,34.1,13.5,34.1" id="207" fill="none" ed:parentid="198" stroke="#696969" transform="matrix(1,0,0,1,289.5,1197.88)" ed:tosuperid="206" stroke-linecap="round" stroke-linejoin="round"/><path d="M-31.3,-245.4C4.3,-132.9,-40.2,273.9,55.5,273.9" id="209" fill="none" ed:parentid="101" stroke="#696969" transform="matrix(1,0,0,1,126.5,1152.38)" ed:tosuperid="208" stroke-linecap="round" stroke-linejoin="round"/><path d="M-13.5,60.6C5.4,60.6,-13.5,-60.6,13.5,-60.6" id="211" fill="none" ed:parentid="208" stroke="#696969" transform="matrix(1,0,0,1,294.5,1365.63)" ed:tosuperid="210" stroke-linecap="round" stroke-linejoin="round"/><path d="M-13.5,7.8C-0.9,7.8,1.2,-7.8,13.5,-7.8" id="213" fill="none" ed:parentid="210" stroke="#696969" transform="matrix(1,0,0,1,504.5,1297.25)" ed:tosuperid="212" stroke-linecap="round" stroke-linejoin="round"/><path d="M-13.5,-7.8C-0.9,-7.8,1.2,7.8,13.5,7.8" id="215" fill="none" ed:parentid="210" stroke="#696969" transform="matrix(1,0,0,1,504.5,1312.75)" ed:tosuperid="214" stroke-linecap="round" stroke-linejoin="round"/><path d="M-13.5,37.4C4.5,37.4,-11.3,-37.4,13.5,-37.4" id="217" fill="none" ed:parentid="208" stroke="#696969" transform="matrix(1,0,0,1,294.5,1388.88)" ed:tosuperid="216" stroke-linecap="round" stroke-linejoin="round"/><path d="M-13.5,0C-2.7,0,5.4,0,13.5,0" id="219" fill="none" ed:parentid="216" stroke="#696969" transform="matrix(1,0,0,1,456.5,1351.5)" ed:tosuperid="218" stroke-linecap="round" stroke-linejoin="round"/><path d="M-13.5,14.1C0.5,14.1,-2.1,-14.1,13.5,-14.1" id="221" fill="none" ed:parentid="208" stroke="#696969" transform="matrix(1,0,0,1,294.5,1412.13)" ed:tosuperid="220" stroke-linecap="round" stroke-linejoin="round"/><path d="M-13.5,7.8C-0.9,7.8,1.2,-7.8,13.5,-7.8" id="223" fill="none" ed:parentid="220" stroke="#696969" transform="matrix(1,0,0,1,456.5,1390.25)" ed:tosuperid="222" stroke-linecap="round" stroke-linejoin="round"/><path d="M-13.5,-7.8C-0.9,-7.8,1.2,7.8,13.5,7.8" id="225" fill="none" ed:parentid="220" stroke="#696969" transform="matrix(1,0,0,1,456.5,1405.75)" ed:tosuperid="224" stroke-linecap="round" stroke-linejoin="round"/><path d="M-13.5,-21.6C2.1,-21.6,-5.7,21.6,13.5,21.6" id="227" fill="none" ed:parentid="208" stroke="#696969" transform="matrix(1,0,0,1,294.5,1447.88)" ed:tosuperid="226" stroke-linecap="round" stroke-linejoin="round"/><path d="M-13.5,3C-2,3,3.8,-3,13.5,-3" id="229" fill="none" ed:parentid="226" stroke="#696969" transform="matrix(1,0,0,1,482.5,1466.5)" ed:tosuperid="228" stroke-linecap="round" stroke-linejoin="round"/><path d="M-13.5,-12.5C0.2,-12.5,-1.3,12.5,13.5,12.5" id="231" fill="none" ed:parentid="226" stroke="#696969" transform="matrix(1,0,0,1,482.5,1482)" ed:tosuperid="230" stroke-linecap="round" stroke-linejoin="round"/><path d="M-13.5,-65.1C5.4,-65.1,-13.5,65.1,13.5,65.1" id="233" fill="none" ed:parentid="208" stroke="#696969" transform="matrix(1,0,0,1,294.5,1491.38)" ed:tosuperid="232" stroke-linecap="round" stroke-linejoin="round"/><path d="M-13.5,15.5C0.8,15.5,-2.8,-15.5,13.5,-15.5" id="235" fill="none" ed:parentid="232" stroke="#696969" transform="matrix(1,0,0,1,417.5,1541)" ed:tosuperid="234" stroke-linecap="round" stroke-linejoin="round"/><path d="M-13.5,-7.8C-0.9,-7.8,1.2,7.8,13.5,7.8" id="237" fill="none" ed:parentid="232" stroke="#696969" transform="matrix(1,0,0,1,417.5,1564.25)" ed:tosuperid="236" stroke-linecap="round" stroke-linejoin="round"/><path d="M-13.5,7.8C-0.9,7.8,1.2,-7.8,13.5,-7.8" id="239" fill="none" ed:parentid="236" stroke="#696969" transform="matrix(1,0,0,1,780.5,1564.25)" ed:tosuperid="238" stroke-linecap="round" stroke-linejoin="round"/><path d="M-13.5,-7.8C-0.9,-7.8,1.2,7.8,13.5,7.8" id="241" fill="none" ed:parentid="236" stroke="#696969" transform="matrix(1,0,0,1,780.5,1579.75)" ed:tosuperid="240" stroke-linecap="round" stroke-linejoin="round"/><path d="M-34.6,-371.9C7,-229.2,-42.9,400.4,55.5,400.4" id="243" fill="none" ed:parentid="101" stroke="#696969" transform="matrix(1,0,0,1,126.5,1278.88)" ed:tosuperid="242" stroke-linecap="round" stroke-linejoin="round"/><path d="M-13.5,-6.1C-1.3,-6.1,2.1,6.1,13.5,6.1" id="245" fill="none" ed:parentid="242" stroke="#696969" transform="matrix(1,0,0,1,275.5,1685.38)" ed:tosuperid="244" stroke-linecap="round" stroke-linejoin="round"/><path d="M-13.5,23.3C2.4,23.3,-6.4,-23.3,13.5,-23.3" id="247" fill="none" ed:parentid="244" stroke="#696969" transform="matrix(1,0,0,1,346.5,1668.25)" ed:tosuperid="246" stroke-linecap="round" stroke-linejoin="round"/><path d="M-13.5,0C-2.7,0,5.4,0,13.5,0" id="249" fill="none" ed:parentid="244" stroke="#696969" transform="matrix(1,0,0,1,346.5,1691.5)" ed:tosuperid="248" stroke-linecap="round" stroke-linejoin="round"/><path d="M-13.5,0C-2.7,0,5.4,0,13.5,0" id="251" fill="none" ed:parentid="246" stroke="#696969" transform="matrix(1,0,0,1,769.5,1645)" ed:tosuperid="250" stroke-linecap="round" stroke-linejoin="round"/><path d="M-13.5,7.8C-0.9,7.8,1.2,-7.8,13.5,-7.8" id="253" fill="none" ed:parentid="248" stroke="#696969" transform="matrix(1,0,0,1,549.5,1683.75)" ed:tosuperid="252" stroke-linecap="round" stroke-linejoin="round"/><path d="M-13.5,-7.8C-0.9,-7.8,1.2,7.8,13.5,7.8" id="255" fill="none" ed:parentid="248" stroke="#696969" transform="matrix(1,0,0,1,549.5,1699.25)" ed:tosuperid="254" stroke-linecap="round" stroke-linejoin="round"/><path d="M-13.5,-23.3C2.4,-23.3,-6.4,23.3,13.5,23.3" id="257" fill="none" ed:parentid="244" stroke="#696969" transform="matrix(1,0,0,1,346.5,1714.75)" ed:tosuperid="256" stroke-linecap="round" stroke-linejoin="round"/><path d="M-13.5,0C-2.7,0,5.4,0,13.5,0" id="259" fill="none" ed:parentid="256" stroke="#696969" transform="matrix(1,0,0,1,527.5,1738)" ed:tosuperid="258" stroke-linecap="round" stroke-linejoin="round"/><g id="101" ed:height="57" ed:width="96" ed:topictype="mainidea" transform="matrix(1,0,0,1,23,850)" ed:layout="map"><path d="M4,0L92,0C94.7,0,96,1.3,96,4L96,53C96,55.7,94.7,57,92,57L4,57C1.3,57,0,55.7,0,53L0,4C0,1.3,1.3,0,4,0z" fill="#435fbc" stroke="#435fbc" stroke-width="3" stroke-linejoin="round"/><text class="st1"><tspan style="white-space:pre" x="21" y="34.5">React</tspan></text></g><g id="102" ed:parentid="101" ed:height="37" ed:width="103" transform="matrix(1,0,0,1,182,68.75)" ed:layout="rightmap"><path d="M4,0L99,0C101.7,0,103,1.3,103,4L103,33C103,35.7,101.7,37,99,37L4,37C1.3,37,0,35.7,0,33L0,4C0,1.3,1.3,0,4,0z" fill="#ebecf3" stroke="#ebecf3" stroke-linejoin="round"/><text class="st2"><tspan style="white-space:pre" x="18" y="23.4">组件通信</tspan></text></g><g id="104" ed:parentid="102" ed:height="24.5" ed:width="53" transform="matrix(1,0,0,1,312,19)" ed:layout="rightmap"><path d="M0,24.5L53,24.5" fill="none" stroke="#696969" stroke-linejoin="round"/><text class="st3"><tspan style="white-space:pre" x="8" y="16.1">Props</tspan></text></g><g id="106" ed:parentid="102" ed:height="24.5" ed:width="70" transform="matrix(1,0,0,1,312,50)" ed:layout="rightmap"><path d="M0,24.5L70,24.5" fill="none" stroke="#696969" stroke-linejoin="round"/><text class="st3"><tspan style="white-space:pre" x="8" y="16.1">状态提升</tspan></text></g><g id="108" ed:parentid="102" ed:height="24.5" ed:width="67" transform="matrix(1,0,0,1,312,106)" ed:layout="rightmap"><path d="M0,24.5L67,24.5" fill="none" stroke="#696969" stroke-linejoin="round"/><text class="st3"><tspan style="white-space:pre" x="8" y="16.1">Context</tspan></text></g><g id="110" ed:parentid="101" ed:height="37" ed:width="103" transform="matrix(1,0,0,1,182,263.25)" ed:layout="rightmap"><path d="M4,0L99,0C101.7,0,103,1.3,103,4L103,33C103,35.7,101.7,37,99,37L4,37C1.3,37,0,35.7,0,33L0,4C0,1.3,1.3,0,4,0z" fill="#ebecf3" stroke="#ebecf3" stroke-linejoin="round"/><text class="st2"><tspan style="white-space:pre" x="18" y="23.4">组件复用</tspan></text></g><g id="112" ed:parentid="110" ed:height="24.5" ed:width="48" transform="matrix(1,0,0,1,312,188.5)" ed:layout="rightmap"><path d="M0,24.5L48,24.5" fill="none" stroke="#696969" stroke-linejoin="round"/><text class="st3"><tspan style="white-space:pre" x="8" y="16.1">HOC</tspan></text></g><g id="114" ed:parentid="110" ed:height="24.5" ed:width="100" transform="matrix(1,0,0,1,312,254)" ed:layout="rightmap"><path d="M0,24.5L100,24.5" fill="none" stroke="#696969" stroke-linejoin="round"/><text class="st3"><tspan style="white-space:pre" x="8" y="16.1">Render Props</tspan></text></g><g id="116" ed:parentid="114" ed:height="24.5" ed:width="145" transform="matrix(1,0,0,1,439,219.5)" ed:layout="rightmap"><path d="M0,24.5L145,24.5" fill="none" stroke="#696969" stroke-linejoin="round"/><text class="st3"><tspan style="white-space:pre" x="8" y="16.1">类似Vue的scope-slot</tspan></text></g><g id="118" ed:parentid="110" ed:height="24.5" ed:width="105" transform="matrix(1,0,0,1,312,335)" ed:layout="rightmap"><path d="M0,24.5L105,24.5" fill="none" stroke="#696969" stroke-linejoin="round"/><text class="st3"><tspan style="white-space:pre" x="8" y="16.1">props.children</tspan></text></g><g id="120" ed:parentid="118" ed:height="24.5" ed:width="103" transform="matrix(1,0,0,1,444,319.5)" ed:layout="rightmap"><path d="M0,24.5L103,24.5" fill="none" stroke="#696969" stroke-linejoin="round"/><text class="st3"><tspan style="white-space:pre" x="8" y="16.1">类似Vue的slot</tspan></text></g><g id="122" ed:parentid="118" ed:height="24.5" ed:width="230" transform="matrix(1,0,0,1,444,350.5)" ed:layout="rightmap"><path d="M0,24.5L230,24.5" fill="none" stroke="#696969" stroke-linejoin="round"/><text class="st3"><tspan style="white-space:pre" x="8" y="16.1">作为prop使用也可以是render props</tspan></text></g><g id="126" ed:parentid="114" ed:height="62.5" ed:width="514" transform="matrix(1,0,0,1,439,250.5)" ed:layout="rightmap"><path d="M0,62.5L514,62.5" fill="none" stroke="#696969" stroke-linejoin="round"/><text class="st3"><tspan style="white-space:pre" x="8" y="16.1">render prop 每次重新渲染时会创建新函数，抵消PureComponent的效果；</tspan><tspan style="white-space:pre" x="8" y="35.1">可以通过定义原型方法，保持render prop指针指向不变，规避每次重新渲染render </tspan><tspan style="white-space:pre" x="8" y="54.1">prop不一样的情况</tspan></text></g><g id="128" ed:parentid="108" ed:height="43.5" ed:width="514" transform="matrix(1,0,0,1,406,81)" ed:layout="rightmap"><path d="M0,43.5L514,43.5" fill="none" stroke="#696969" stroke-linejoin="round"/><text class="st3"><tspan style="white-space:pre" x="8" y="16.1">使用参考标识（reference identity）来决定何时进行渲染，每次创建新对象会导致子</tspan><tspan style="white-space:pre" x="8" y="35.1">Consumer组件重新渲染</tspan></text></g><g id="130" ed:parentid="101" ed:height="37" ed:width="103" transform="matrix(1,0,0,1,182,541.25)" ed:layout="rightmap"><path d="M4,0L99,0C101.7,0,103,1.3,103,4L103,33C103,35.7,101.7,37,99,37L4,37C1.3,37,0,35.7,0,33L0,4C0,1.3,1.3,0,4,0z" fill="#ebecf3" stroke="#ebecf3" stroke-linejoin="round"/><text class="st2"><tspan style="white-space:pre" x="18" y="23.4">异常捕获</tspan></text></g><g id="132" ed:parentid="130" ed:height="24.5" ed:width="146" transform="matrix(1,0,0,1,312,408)" ed:layout="rightmap"><path d="M0,24.5L146,24.5" fill="none" stroke="#696969" stroke-linejoin="round"/><text class="st3"><tspan style="white-space:pre" x="8" y="16.1">componentDidCatch</tspan></text></g><g id="134" ed:parentid="132" ed:height="24.5" ed:width="200" transform="matrix(1,0,0,1,485,408)" ed:layout="rightmap"><path d="M0,24.5L200,24.5" fill="none" stroke="#696969" stroke-linejoin="round"/><text class="st3"><tspan style="white-space:pre" x="8" y="16.1">获取到错误信息，打印，上报等</tspan></text></g><g id="136" ed:parentid="130" ed:height="24.5" ed:width="179" transform="matrix(1,0,0,1,312,439)" ed:layout="rightmap"><path d="M0,24.5L179,24.5" fill="none" stroke="#696969" stroke-linejoin="round"/><text class="st3"><tspan style="white-space:pre" x="8" y="16.1">getDerivedStateFromError</tspan></text></g><g id="138" ed:parentid="136" ed:height="24.5" ed:width="147" transform="matrix(1,0,0,1,518,439)" ed:layout="rightmap"><path d="M0,24.5L147,24.5" fill="none" stroke="#696969" stroke-linejoin="round"/><text class="st3"><tspan style="white-space:pre" x="8" y="16.1">更新state, 渲染备用UI</tspan></text></g><g id="140" ed:parentid="130" ed:height="24.5" ed:width="109" transform="matrix(1,0,0,1,312,516.5)" ed:layout="rightmap"><path d="M0,24.5L109,24.5" fill="none" stroke="#696969" stroke-linejoin="round"/><text class="st3"><tspan style="white-space:pre" x="8" y="16.1">无法捕获的异常</tspan></text></g><g id="142" ed:parentid="140" ed:height="24.5" ed:width="70" transform="matrix(1,0,0,1,448,470)" ed:layout="rightmap"><path d="M0,24.5L70,24.5" fill="none" stroke="#696969" stroke-linejoin="round"/><text class="st3"><tspan style="white-space:pre" x="8" y="16.1">事件处理</tspan></text></g><g id="144" ed:parentid="140" ed:height="24.5" ed:width="70" transform="matrix(1,0,0,1,448,501)" ed:layout="rightmap"><path d="M0,24.5L70,24.5" fill="none" stroke="#696969" stroke-linejoin="round"/><text class="st3"><tspan style="white-space:pre" x="8" y="16.1">异步代码</tspan></text></g><g id="146" ed:parentid="140" ed:height="24.5" ed:width="83" transform="matrix(1,0,0,1,448,532)" ed:layout="rightmap"><path d="M0,24.5L83,24.5" fill="none" stroke="#696969" stroke-linejoin="round"/><text class="st3"><tspan style="white-space:pre" x="8" y="16.1">服务端渲染</tspan></text></g><g id="148" ed:parentid="140" ed:height="24.5" ed:width="148" transform="matrix(1,0,0,1,448,563)" ed:layout="rightmap"><path d="M0,24.5L148,24.5" fill="none" stroke="#696969" stroke-linejoin="round"/><text class="st3"><tspan style="white-space:pre" x="8" y="16.1">自身错误（非子组件）</tspan></text></g><g id="150" ed:parentid="130" ed:height="24.5" ed:width="44" transform="matrix(1,0,0,1,312,640.5)" ed:layout="rightmap"><path d="M0,24.5L44,24.5" fill="none" stroke="#696969" stroke-linejoin="round"/><text class="st3"><tspan style="white-space:pre" x="8" y="16.1">用途</tspan></text></g><g id="152" ed:parentid="150" ed:height="24.5" ed:width="70" transform="matrix(1,0,0,1,383,625)" ed:layout="rightmap"><path d="M0,24.5L70,24.5" fill="none" stroke="#696969" stroke-linejoin="round"/><text class="st3"><tspan style="white-space:pre" x="8" y="16.1">优雅降级</tspan></text></g><g id="154" ed:parentid="150" ed:height="24.5" ed:width="70" transform="matrix(1,0,0,1,383,656)" ed:layout="rightmap"><path d="M0,24.5L70,24.5" fill="none" stroke="#696969" stroke-linejoin="round"/><text class="st3"><tspan style="white-space:pre" x="8" y="16.1">异常监控</tspan></text></g><g id="156" ed:parentid="150" ed:height="24.5" ed:width="96" transform="matrix(1,0,0,1,383,687)" ed:layout="rightmap"><path d="M0,24.5L96,24.5" fill="none" stroke="#696969" stroke-linejoin="round"/><text class="st3"><tspan style="white-space:pre" x="8" y="16.1">面向切面编程</tspan></text></g><g id="158" ed:parentid="108" ed:height="24.5" ed:width="128" transform="matrix(1,0,0,1,406,131)" ed:layout="rightmap"><path d="M0,24.5L128,24.5" fill="none" stroke="#696969" stroke-linejoin="round"/><text class="st3"><tspan style="white-space:pre" x="8" y="16.1">生产者/消费者模式</tspan></text></g><g id="162" ed:parentid="150" ed:height="24.5" ed:width="216" transform="matrix(1,0,0,1,383,594)" ed:layout="rightmap"><path d="M0,24.5L216,24.5" fill="none" stroke="#696969" stroke-linejoin="round"/><text class="st3"><tspan style="white-space:pre" x="8" y="16.1">class组件才可以成为错误边界组件</tspan></text></g><g id="164" ed:parentid="142" ed:height="24.5" ed:width="226" transform="matrix(1,0,0,1,545,470)" ed:layout="rightmap"><path d="M0,24.5L226,24.5" fill="none" stroke="#696969" stroke-linejoin="round"/><text class="st3"><tspan style="white-space:pre" x="8" y="16.1">不需要捕获，因为不会发生渲染阶段</tspan></text></g><g id="166" ed:parentid="101" ed:height="37" ed:width="103" transform="matrix(1,0,0,1,182,815.75)" ed:layout="rightmap"><path d="M4,0L99,0C101.7,0,103,1.3,103,4L103,33C103,35.7,101.7,37,99,37L4,37C1.3,37,0,35.7,0,33L0,4C0,1.3,1.3,0,4,0z" fill="#ebecf3" stroke="#ebecf3" stroke-linejoin="round"/><text class="st2"><tspan style="white-space:pre" x="18" y="23.4">性能优化</tspan></text></g><g id="168" ed:parentid="166" ed:height="24.5" ed:width="70" transform="matrix(1,0,0,1,312,775.5)" ed:layout="rightmap"><path d="M0,24.5L70,24.5" fill="none" stroke="#696969" stroke-linejoin="round"/><text class="st3"><tspan style="white-space:pre" x="8" y="16.1">构建性能</tspan></text></g><g id="170" ed:parentid="166" ed:height="24.5" ed:width="70" transform="matrix(1,0,0,1,312,853)" ed:layout="rightmap"><path d="M0,24.5L70,24.5" fill="none" stroke="#696969" stroke-linejoin="round"/><text class="st3"><tspan style="white-space:pre" x="8" y="16.1">性能分析</tspan></text></g><g id="172" ed:parentid="166" ed:height="24.5" ed:width="70" transform="matrix(1,0,0,1,312,899.5)" ed:layout="rightmap"><path d="M0,24.5L70,24.5" fill="none" stroke="#696969" stroke-linejoin="round"/><text class="st3"><tspan style="white-space:pre" x="8" y="16.1">优化手段</tspan></text></g><g id="174" ed:parentid="168" ed:height="24.5" ed:width="98" transform="matrix(1,0,0,1,409,744.5)" ed:layout="rightmap"><path d="M0,24.5L98,24.5" fill="none" stroke="#696969" stroke-linejoin="round"/><text class="st3"><tspan style="white-space:pre" x="8" y="16.1">webpack优化</tspan></text></g><g id="176" ed:parentid="168" ed:height="24.5" ed:width="96" transform="matrix(1,0,0,1,409,775.5)" ed:layout="rightmap"><path d="M0,24.5L96,24.5" fill="none" stroke="#696969" stroke-linejoin="round"/><text class="st3"><tspan style="white-space:pre" x="8" y="16.1">其他构建工具</tspan></text></g><g id="178" ed:parentid="170" ed:height="24.5" ed:width="241" transform="matrix(1,0,0,1,409,837.5)" ed:layout="rightmap"><path d="M0,24.5L241,24.5" fill="none" stroke="#696969" stroke-linejoin="round"/><text class="st3"><tspan style="white-space:pre" x="8" y="16.1">Chrome Performance控制台分析组件</tspan></text></g><g id="180" ed:parentid="168" ed:height="24.5" ed:width="104" transform="matrix(1,0,0,1,409,806.5)" ed:layout="rightmap"><path d="M0,24.5L104,24.5" fill="none" stroke="#696969" stroke-linejoin="round"/><text class="st3"><tspan style="white-space:pre" x="8" y="16.1">生产版本React</tspan></text></g><g id="182" ed:parentid="170" ed:height="24.5" ed:width="135" transform="matrix(1,0,0,1,409,868.5)" ed:layout="rightmap"><path d="M0,24.5L135,24.5" fill="none" stroke="#696969" stroke-linejoin="round"/><text class="st3"><tspan style="white-space:pre" x="8" y="16.1">开发者工具的分析器</tspan></text></g><g id="184" ed:parentid="182" ed:height="19.5" ed:width="492" transform="matrix(1,0,0,1,571,871)" ed:layout="rightmap"><path d="M0,19.5L492,19.5" fill="none" stroke="#696969" stroke-linejoin="round"/><text class="st4"><tspan style="white-space:pre" x="8" class="st5" y="13.1">https://zh-hans.reactjs.org/blog/2018/09/10/introducing-the-react-profiler.html</tspan></text></g><g id="186" ed:parentid="172" ed:height="24.5" ed:width="121" transform="matrix(1,0,0,1,409,899.5)" ed:layout="rightmap"><path d="M0,24.5L121,24.5" fill="none" stroke="#696969" stroke-linejoin="round"/><text class="st3"><tspan style="white-space:pre" x="8" y="16.1">长列表--虚拟滚动</tspan></text></g><g id="188" ed:parentid="186" ed:height="24.5" ed:width="246" transform="matrix(1,0,0,1,557,899.5)" ed:layout="rightmap"><path d="M0,24.5L246,24.5" fill="none" stroke="#696969" stroke-linejoin="round"/><text class="st3"><tspan style="white-space:pre" x="8" y="16.1">插件：react-window/react-virtualized</tspan></text></g><g id="190" ed:parentid="101" ed:height="37" ed:width="91" transform="matrix(1,0,0,1,182,991.25)" ed:layout="rightmap"><path d="M4,0L87,0C89.7,0,91,1.3,91,4L91,33C91,35.7,89.7,37,87,37L4,37C1.3,37,0,35.7,0,33L0,4C0,1.3,1.3,0,4,0z" fill="#ebecf3" stroke="#ebecf3" stroke-linejoin="round"/><text class="st2"><tspan style="white-space:pre" x="18" y="23.4">portals</tspan></text></g><g id="192" ed:parentid="190" ed:height="24.5" ed:width="234" transform="matrix(1,0,0,1,300,957)" ed:layout="rightmap"><path d="M0,24.5L234,24.5" fill="none" stroke="#696969" stroke-linejoin="round"/><text class="st3"><tspan style="white-space:pre" x="8" y="16.1">ReactDOM.createPortal((&lt;div>), el)</tspan></text></g><g id="194" ed:parentid="190" ed:height="43.5" ed:width="514" transform="matrix(1,0,0,1,300,988)" ed:layout="rightmap"><path d="M0,43.5L514,43.5" fill="none" stroke="#696969" stroke-linejoin="round"/><text class="st3"><tspan style="white-space:pre" x="8" y="16.1">要点：通过createPortal API将JSX挂在到指定的节点上获取到el，再通过mount钩子将</tspan><tspan style="white-space:pre" x="8" y="35.1">当前组件的根节点（el）挂载到指定容器上</tspan></text></g><g id="196" ed:parentid="190" ed:height="24.5" ed:width="286" transform="matrix(1,0,0,1,300,1038)" ed:layout="rightmap"><path d="M0,24.5L286,24.5" fill="none" stroke="#696969" stroke-linejoin="round"/><text class="st3"><tspan style="white-space:pre" x="8" y="16.1">事件按编码的节点顺序冒泡，与DOM结构无关</tspan></text></g><g id="198" ed:parentid="101" ed:height="37" ed:width="94" transform="matrix(1,0,0,1,182,1145.25)" ed:layout="rightmap"><path d="M4,0L90,0C92.7,0,94,1.3,94,4L94,33C94,35.7,92.7,37,90,37L4,37C1.3,37,0,35.7,0,33L0,4C0,1.3,1.3,0,4,0z" fill="#ebecf3" stroke="#ebecf3" stroke-linejoin="round"/><text class="st2"><tspan style="white-space:pre" x="18" y="23.4">profiler</tspan></text></g><g id="200" ed:parentid="198" ed:height="24.5" ed:width="70" transform="matrix(1,0,0,1,303,1095.5)" ed:layout="rightmap"><path d="M0,24.5L70,24.5" fill="none" stroke="#696969" stroke-linejoin="round"/><text class="st3"><tspan style="white-space:pre" x="8" y="16.1">性能测量</tspan></text></g><g id="202" ed:parentid="198" ed:height="24.5" ed:width="216" transform="matrix(1,0,0,1,303,1126.5)" ed:layout="rightmap"><path d="M0,24.5L216,24.5" fill="none" stroke="#696969" stroke-linejoin="round"/><text class="st3"><tspan style="white-space:pre" x="8" y="16.1">React.Profiler包裹想要测量的组件</tspan></text></g><g id="204" ed:parentid="198" ed:height="24.5" ed:width="214" transform="matrix(1,0,0,1,303,1157.5)" ed:layout="rightmap"><path d="M0,24.5L214,24.5" fill="none" stroke="#696969" stroke-linejoin="round"/><text class="st3"><tspan style="white-space:pre" x="8" y="16.1">生产环境使用损耗CPU和内存资源</tspan></text></g><g id="206" ed:parentid="198" ed:height="43.5" ed:width="514" transform="matrix(1,0,0,1,303,1188.5)" ed:layout="rightmap"><path d="M0,43.5L514,43.5" fill="none" stroke="#696969" stroke-linejoin="round"/><text class="st3"><tspan style="white-space:pre" x="8" y="16.1">作用：监测mount和update引起的渲染耗时，帮助React组件做性能优化，追踪更新原</tspan><tspan style="white-space:pre" x="8" y="35.1">因（实验性）</tspan></text></g><g id="208" ed:parentid="101" ed:height="37" ed:width="99" transform="matrix(1,0,0,1,182,1407.75)" ed:layout="rightmap"><path d="M4,0L95,0C97.7,0,99,1.3,99,4L99,33C99,35.7,97.7,37,95,37L4,37C1.3,37,0,35.7,0,33L0,4C0,1.3,1.3,0,4,0z" fill="#ebecf3" stroke="#ebecf3" stroke-linejoin="round"/><text class="st2"><tspan style="white-space:pre" x="18" y="23.4">Diff算法</tspan></text></g><g id="210" ed:parentid="208" ed:height="24.5" ed:width="183" transform="matrix(1,0,0,1,308,1280.5)" ed:layout="rightmap"><path d="M0,24.5L183,24.5" fill="none" stroke="#696969" stroke-linejoin="round"/><text class="st3"><tspan style="white-space:pre" x="8" y="16.1">树比较O(n3)算法复杂度优化</tspan></text></g><g id="212" ed:parentid="210" ed:height="24.5" ed:width="252" transform="matrix(1,0,0,1,518,1265)" ed:layout="rightmap"><path d="M0,24.5L252,24.5" fill="none" stroke="#696969" stroke-linejoin="round"/><text class="st3"><tspan style="white-space:pre" x="8" y="16.1">两个不同类型的元素会产生出不同的树；</tspan></text></g><g id="214" ed:parentid="210" ed:height="24.5" ed:width="431" transform="matrix(1,0,0,1,518,1296)" ed:layout="rightmap"><path d="M0,24.5L431,24.5" fill="none" stroke="#696969" stroke-linejoin="round"/><text class="st3"><tspan style="white-space:pre" x="8" y="16.1">开发者可以通过 key prop 来暗示哪些子元素在不同的渲染下能保持稳定</tspan></text></g><g id="216" ed:parentid="208" ed:height="24.5" ed:width="135" transform="matrix(1,0,0,1,308,1327)" ed:layout="rightmap"><path d="M0,24.5L135,24.5" fill="none" stroke="#696969" stroke-linejoin="round"/><text class="st3"><tspan style="white-space:pre" x="8" y="16.1">对比不同类型的元素</tspan></text></g><g id="218" ed:parentid="216" ed:height="24.5" ed:width="309" transform="matrix(1,0,0,1,470,1327)" ed:layout="rightmap"><path d="M0,24.5L309,24.5" fill="none" stroke="#696969" stroke-linejoin="round"/><text class="st3"><tspan style="white-space:pre" x="8" y="16.1">tagName不同，直接销毁自身及子组件，重新创建</tspan></text></g><g id="220" ed:parentid="208" ed:height="24.5" ed:width="135" transform="matrix(1,0,0,1,308,1373.5)" ed:layout="rightmap"><path d="M0,24.5L135,24.5" fill="none" stroke="#696969" stroke-linejoin="round"/><text class="st3"><tspan style="white-space:pre" x="8" y="16.1">对比相同类型的元素</tspan></text></g><g id="222" ed:parentid="220" ed:height="24.5" ed:width="247" transform="matrix(1,0,0,1,470,1358)" ed:layout="rightmap"><path d="M0,24.5L247,24.5" fill="none" stroke="#696969" stroke-linejoin="round"/><text class="st3"><tspan style="white-space:pre" x="8" y="16.1">保留DOM节点，对比更新有改变的属性</tspan></text></g><g id="224" ed:parentid="220" ed:height="24.5" ed:width="135" transform="matrix(1,0,0,1,470,1389)" ed:layout="rightmap"><path d="M0,24.5L135,24.5" fill="none" stroke="#696969" stroke-linejoin="round"/><text class="st3"><tspan style="white-space:pre" x="8" y="16.1">完成之后递归子节点</tspan></text></g><g id="226" ed:parentid="208" ed:height="24.5" ed:width="161" transform="matrix(1,0,0,1,308,1445)" ed:layout="rightmap"><path d="M0,24.5L161,24.5" fill="none" stroke="#696969" stroke-linejoin="round"/><text class="st3"><tspan style="white-space:pre" x="8" y="16.1">对比相同类型的组件元素</tspan></text></g><g id="228" ed:parentid="226" ed:height="43.5" ed:width="514" transform="matrix(1,0,0,1,496,1420)" ed:layout="rightmap"><path d="M0,43.5L514,43.5" fill="none" stroke="#696969" stroke-linejoin="round"/><text class="st3"><tspan style="white-space:pre" x="8" y="16.1">组件实例不变，调用实例的componentWillReceiveProps和componentWillUpdate钩</tspan><tspan style="white-space:pre" x="8" y="35.1">子</tspan></text></g><g id="230" ed:parentid="226" ed:height="24.5" ed:width="196" transform="matrix(1,0,0,1,496,1470)" ed:layout="rightmap"><path d="M0,24.5L196,24.5" fill="none" stroke="#696969" stroke-linejoin="round"/><text class="st3"><tspan style="white-space:pre" x="8" y="16.1">调用render方法，diff新旧结果</tspan></text></g><g id="232" ed:parentid="208" ed:height="24.5" ed:width="96" transform="matrix(1,0,0,1,308,1532)" ed:layout="rightmap"><path d="M0,24.5L96,24.5" fill="none" stroke="#696969" stroke-linejoin="round"/><text class="st3"><tspan style="white-space:pre" x="8" y="16.1">对子节点递归</tspan></text></g><g id="234" ed:parentid="232" ed:height="24.5" ed:width="386" transform="matrix(1,0,0,1,431,1501)" ed:layout="rightmap"><path d="M0,24.5L386,24.5" fill="none" stroke="#696969" stroke-linejoin="round"/><text class="st3"><tspan style="white-space:pre" x="8" y="16.1">同时遍历新旧两个子元素列表，产生差异时，生产一个mutation</tspan></text></g><g id="236" ed:parentid="232" ed:height="24.5" ed:width="336" transform="matrix(1,0,0,1,431,1547.5)" ed:layout="rightmap"><path d="M0,24.5L336,24.5" fill="none" stroke="#696969" stroke-linejoin="round"/><text class="st3"><tspan style="white-space:pre" x="8" y="16.1">key:子元素有key属性时，react用key来匹配新旧子元素</tspan></text></g><g id="238" ed:parentid="236" ed:height="24.5" ed:width="221" transform="matrix(1,0,0,1,794,1532)" ed:layout="rightmap"><path d="M0,24.5L221,24.5" fill="none" stroke="#696969" stroke-linejoin="round"/><text class="st3"><tspan style="white-space:pre" x="8" y="16.1">key应该稳定、可预测、列表内唯一</tspan></text></g><g id="240" ed:parentid="236" ed:height="24.5" ed:width="327" transform="matrix(1,0,0,1,794,1563)" ed:layout="rightmap"><path d="M0,24.5L327,24.5" fill="none" stroke="#696969" stroke-linejoin="round"/><text class="st3"><tspan style="white-space:pre" x="8" y="16.1">不稳定的key可能导致许多实例和dom节点被重新创建</tspan></text></g><g id="242" ed:parentid="101" ed:height="37" ed:width="80" transform="matrix(1,0,0,1,182,1660.75)" ed:layout="rightmap"><path d="M4,0L76,0C78.7,0,80,1.3,80,4L80,33C80,35.7,78.7,37,76,37L4,37C1.3,37,0,35.7,0,33L0,4C0,1.3,1.3,0,4,0z" fill="#ebecf3" stroke="#ebecf3" stroke-linejoin="round"/><text class="st2"><tspan style="white-space:pre" x="18" y="23.4">Hook</tspan></text></g><g id="244" ed:parentid="242" ed:height="24.5" ed:width="44" transform="matrix(1,0,0,1,289,1667)" ed:layout="rightmap"><path d="M0,24.5L44,24.5" fill="none" stroke="#696969" stroke-linejoin="round"/><text class="st3"><tspan style="white-space:pre" x="8" y="16.1">规则</tspan></text></g><g id="246" ed:parentid="244" ed:height="24.5" ed:width="396" transform="matrix(1,0,0,1,360,1620.5)" ed:layout="rightmap"><path d="M0,24.5L396,24.5" fill="none" stroke="#696969" stroke-linejoin="round"/><text class="st3"><tspan style="white-space:pre" x="8" y="16.1">只在最顶层使用Hook，不要在循环，条件或嵌套函数中调用Hook</tspan></text></g><g id="248" ed:parentid="244" ed:height="24.5" ed:width="176" transform="matrix(1,0,0,1,360,1667)" ed:layout="rightmap"><path d="M0,24.5L176,24.5" fill="none" stroke="#696969" stroke-linejoin="round"/><text class="st3"><tspan style="white-space:pre" x="8" y="16.1">只在React函数中调用Hook</tspan></text></g><g id="250" ed:parentid="246" ed:height="24.5" ed:width="350" transform="matrix(1,0,0,1,783,1620.5)" ed:layout="rightmap"><path d="M0,24.5L350,24.5" fill="none" stroke="#696969" stroke-linejoin="round"/><text class="st3"><tspan style="white-space:pre" x="8" y="16.1">作用：确保Hook在每一次渲染中都按照同样的顺序被调用</tspan></text></g><g id="252" ed:parentid="248" ed:height="24.5" ed:width="189" transform="matrix(1,0,0,1,563,1651.5)" ed:layout="rightmap"><path d="M0,24.5L189,24.5" fill="none" stroke="#696969" stroke-linejoin="round"/><text class="st3"><tspan style="white-space:pre" x="8" y="16.1">在React函数组件中调用Hook</tspan></text></g><g id="254" ed:parentid="248" ed:height="24.5" ed:width="201" transform="matrix(1,0,0,1,563,1682.5)" ed:layout="rightmap"><path d="M0,24.5L201,24.5" fill="none" stroke="#696969" stroke-linejoin="round"/><text class="st3"><tspan style="white-space:pre" x="8" y="16.1">在自定义Hook中调用其他Hook</tspan></text></g><g id="256" ed:parentid="244" ed:height="24.5" ed:width="154" transform="matrix(1,0,0,1,360,1713.5)" ed:layout="rightmap"><path d="M0,24.5L154,24.5" fill="none" stroke="#696969" stroke-linejoin="round"/><text class="st3"><tspan style="white-space:pre" x="8" y="16.1">eslint插件保障规则实施</tspan></text></g><g id="258" ed:parentid="256" ed:height="24.5" ed:width="174" transform="matrix(1,0,0,1,541,1713.5)" ed:layout="rightmap"><path d="M0,24.5L174,24.5" fill="none" stroke="#696969" stroke-linejoin="round"/><text class="st3"><tspan style="white-space:pre" x="8" y="16.1">eslint-plugin-react-hooks</tspan></text></g></svg>
