<svg ed:vSpacing="30" width="885" id="page100" xmlns="http://www.w3.org/2000/svg" height="726" xmlns:xlink="http://www.w3.org/1999/xlink" ed:name="页面-1" viewBox="0 0 885 726" xmlns:ev="http://www.w3.org/2001/xml-events" ed:hSpacing="30" xmlns:ed="https://www.edrawsoft.cn/xml/2017/SVGExtensions/"><style type="text/css"><![CDATA[
g[ed\:togtopicid],g[ed\:hyperlink],g[ed\:comment],g[ed\:note] {cursor:pointer;}
g[id] {-moz-user-select: none;-ms-user-select: none;user-select: none;}
svg text::selection,svg tspan::selection{background-color: #4285f4;color: #ffffff;fill: #ffffff;}
.st7 {fill:#303030;font-family:微软雅黑;font-size:12pt}
.st8 {fill:#454545;font-family:微软雅黑;font-size:10pt}
.st6 {fill:#ffffff;font-family:微软雅黑;font-size:14pt}
]]></style><defs/><rect width="885" fill="#ffffff" height="726" x="0" y="0"/><path d="M-30.3,133.1C0.3,54.2,-29,-161.6,61.8,-161.6" id="103" fill="none" ed:parentid="101" stroke="#696969" transform="matrix(1,0,0,1,145.25,199.13)" ed:tosuperid="102" stroke-linecap="round" stroke-linejoin="round"/><path d="M-1.3,-1.8C18.5,7.5,36.8,17.5,61.8,17.5" id="105" fill="none" ed:parentid="101" stroke="#696969" transform="matrix(1,0,0,1,145.25,378.25)" ed:tosuperid="104" stroke-linecap="round" stroke-linejoin="round"/><path d="M-13.5,-6.1C-1.3,-6.1,2.1,6.1,13.5,6.1" id="107" fill="none" ed:parentid="102" stroke="#696969" transform="matrix(1,0,0,1,291.5,43.63)" ed:tosuperid="106" stroke-linecap="round" stroke-linejoin="round"/><path d="M-13.5,117.9C5.4,117.9,-13.5,-117.9,13.5,-117.9" id="109" fill="none" ed:parentid="104" stroke="#696969" transform="matrix(1,0,0,1,307.5,277.88)" ed:tosuperid="108" stroke-linecap="round" stroke-linejoin="round"/><path d="M-13.5,55.9C5.4,55.9,-13.5,-55.9,13.5,-55.9" id="111" fill="none" ed:parentid="104" stroke="#696969" transform="matrix(1,0,0,1,307.5,339.88)" ed:tosuperid="110" stroke-linecap="round" stroke-linejoin="round"/><path d="M-13.5,1.6C-2.3,1.6,4.5,-1.6,13.5,-1.6" id="113" fill="none" ed:parentid="104" stroke="#696969" transform="matrix(1,0,0,1,307.5,394.13)" ed:tosuperid="112" stroke-linecap="round" stroke-linejoin="round"/><path d="M-13.5,-91.4C5.4,-91.4,-13.5,91.4,13.5,91.4" id="115" fill="none" ed:parentid="104" stroke="#696969" transform="matrix(1,0,0,1,307.5,487.13)" ed:tosuperid="114" stroke-linecap="round" stroke-linejoin="round"/><path d="M-13.5,23.3C2.4,23.3,-6.4,-23.3,13.5,-23.3" id="117" fill="none" ed:parentid="108" stroke="#696969" transform="matrix(1,0,0,1,417.5,136.75)" ed:tosuperid="116" stroke-linecap="round" stroke-linejoin="round"/><path d="M-13.5,7.8C-0.9,7.8,1.2,-7.8,13.5,-7.8" id="119" fill="none" ed:parentid="108" stroke="#696969" transform="matrix(1,0,0,1,417.5,152.25)" ed:tosuperid="118" stroke-linecap="round" stroke-linejoin="round"/><path d="M-13.5,-7.8C-0.9,-7.8,1.2,7.8,13.5,7.8" id="121" fill="none" ed:parentid="108" stroke="#696969" transform="matrix(1,0,0,1,417.5,167.75)" ed:tosuperid="120" stroke-linecap="round" stroke-linejoin="round"/><path d="M-13.5,23.3C2.4,23.3,-6.4,-23.3,13.5,-23.3" id="123" fill="none" ed:parentid="110" stroke="#696969" transform="matrix(1,0,0,1,417.5,260.75)" ed:tosuperid="122" stroke-linecap="round" stroke-linejoin="round"/><path d="M-13.5,7.8C-0.9,7.8,1.2,-7.8,13.5,-7.8" id="125" fill="none" ed:parentid="110" stroke="#696969" transform="matrix(1,0,0,1,417.5,276.25)" ed:tosuperid="124" stroke-linecap="round" stroke-linejoin="round"/><path d="M-13.5,-23.3C2.4,-23.3,-6.4,23.3,13.5,23.3" id="127" fill="none" ed:parentid="108" stroke="#696969" transform="matrix(1,0,0,1,417.5,183.25)" ed:tosuperid="126" stroke-linecap="round" stroke-linejoin="round"/><path d="M-13.5,-7.8C-0.9,-7.8,1.2,7.8,13.5,7.8" id="129" fill="none" ed:parentid="110" stroke="#696969" transform="matrix(1,0,0,1,417.5,291.75)" ed:tosuperid="128" stroke-linecap="round" stroke-linejoin="round"/><path d="M-13.5,-23.3C2.4,-23.3,-6.4,23.3,13.5,23.3" id="131" fill="none" ed:parentid="110" stroke="#696969" transform="matrix(1,0,0,1,417.5,307.25)" ed:tosuperid="130" stroke-linecap="round" stroke-linejoin="round"/><path d="M-13.5,15.5C0.8,15.5,-2.8,-15.5,13.5,-15.5" id="133" fill="none" ed:parentid="112" stroke="#696969" transform="matrix(1,0,0,1,417.5,377)" ed:tosuperid="132" stroke-linecap="round" stroke-linejoin="round"/><path d="M-13.5,0C-2.7,0,5.4,0,13.5,0" id="135" fill="none" ed:parentid="112" stroke="#696969" transform="matrix(1,0,0,1,417.5,392.5)" ed:tosuperid="134" stroke-linecap="round" stroke-linejoin="round"/><path d="M-13.5,-15.5C0.8,-15.5,-2.8,15.5,13.5,15.5" id="137" fill="none" ed:parentid="112" stroke="#696969" transform="matrix(1,0,0,1,417.5,408)" ed:tosuperid="136" stroke-linecap="round" stroke-linejoin="round"/><path d="M-13.5,62C5.4,62,-13.5,-62,13.5,-62" id="139" fill="none" ed:parentid="114" stroke="#696969" transform="matrix(1,0,0,1,417.5,516.5)" ed:tosuperid="138" stroke-linecap="round" stroke-linejoin="round"/><path d="M-13.5,15.5C0.8,15.5,-2.8,-15.5,13.5,-15.5" id="141" fill="none" ed:parentid="114" stroke="#696969" transform="matrix(1,0,0,1,417.5,563)" ed:tosuperid="140" stroke-linecap="round" stroke-linejoin="round"/><path d="M-13.5,-46.5C5.2,-46.5,-13.1,46.5,13.5,46.5" id="143" fill="none" ed:parentid="114" stroke="#696969" transform="matrix(1,0,0,1,417.5,625)" ed:tosuperid="142" stroke-linecap="round" stroke-linejoin="round"/><path d="M-13.5,15.5C0.8,15.5,-2.8,-15.5,13.5,-15.5" id="145" fill="none" ed:parentid="142" stroke="#696969" transform="matrix(1,0,0,1,540.5,656)" ed:tosuperid="144" stroke-linecap="round" stroke-linejoin="round"/><path d="M-13.5,0C-2.7,0,5.4,0,13.5,0" id="147" fill="none" ed:parentid="142" stroke="#696969" transform="matrix(1,0,0,1,540.5,671.5)" ed:tosuperid="146" stroke-linecap="round" stroke-linejoin="round"/><path d="M-13.5,-15.5C0.8,-15.5,-2.8,15.5,13.5,15.5" id="149" fill="none" ed:parentid="142" stroke="#696969" transform="matrix(1,0,0,1,540.5,687)" ed:tosuperid="148" stroke-linecap="round" stroke-linejoin="round"/><path d="M-13.5,23.3C2.4,23.3,-6.4,-23.3,13.5,-23.3" id="151" fill="none" ed:parentid="140" stroke="#696969" transform="matrix(1,0,0,1,540.5,524.25)" ed:tosuperid="150" stroke-linecap="round" stroke-linejoin="round"/><path d="M-13.5,-15.5C0.8,-15.5,-2.8,15.5,13.5,15.5" id="153" fill="none" ed:parentid="140" stroke="#696969" transform="matrix(1,0,0,1,540.5,563)" ed:tosuperid="152" stroke-linecap="round" stroke-linejoin="round"/><path d="M-13.5,15.5C0.8,15.5,-2.8,-15.5,13.5,-15.5" id="155" fill="none" ed:parentid="152" stroke="#696969" transform="matrix(1,0,0,1,663.5,563)" ed:tosuperid="154" stroke-linecap="round" stroke-linejoin="round"/><path d="M-13.5,0C-2.7,0,5.4,0,13.5,0" id="157" fill="none" ed:parentid="152" stroke="#696969" transform="matrix(1,0,0,1,663.5,578.5)" ed:tosuperid="156" stroke-linecap="round" stroke-linejoin="round"/><path d="M-13.5,-15.5C0.8,-15.5,-2.8,15.5,13.5,15.5" id="159" fill="none" ed:parentid="152" stroke="#696969" transform="matrix(1,0,0,1,663.5,594)" ed:tosuperid="158" stroke-linecap="round" stroke-linejoin="round"/><path d="M-13.5,7.8C-0.9,7.8,1.2,-7.8,13.5,-7.8" id="161" fill="none" ed:parentid="150" stroke="#696969" transform="matrix(1,0,0,1,653.5,493.25)" ed:tosuperid="160" stroke-linecap="round" stroke-linejoin="round"/><path d="M-13.5,-7.8C-0.9,-7.8,1.2,7.8,13.5,7.8" id="163" fill="none" ed:parentid="150" stroke="#696969" transform="matrix(1,0,0,1,653.5,508.75)" ed:tosuperid="162" stroke-linecap="round" stroke-linejoin="round"/><g id="101" ed:height="57" ed:width="121" ed:topictype="mainidea" transform="matrix(1,0,0,1,23,332.25)" ed:layout="rightmap"><path d="M4,0L117,0C119.7,0,121,1.3,121,4L121,53C121,55.7,119.7,57,117,57L4,57C1.3,57,0,55.7,0,53L0,4C0,1.3,1.3,0,4,0z" fill="#435fbc" stroke="#435fbc" stroke-width="3" stroke-linejoin="round"/><text class="st6"><tspan style="white-space:pre" x="21" y="34.5">前端架构</tspan></text></g><g id="102" ed:parentid="101" ed:height="37" ed:width="71" transform="matrix(1,0,0,1,207,19)"><path d="M4,0L67,0C69.7,0,71,1.3,71,4L71,33C71,35.7,69.7,37,67,37L4,37C1.3,37,0,35.7,0,33L0,4C0,1.3,1.3,0,4,0z" fill="#ebecf3" stroke="#ebecf3" stroke-linejoin="round"/><text class="st7"><tspan style="white-space:pre" x="18" y="23.4">定义</tspan></text></g><g id="104" ed:parentid="101" ed:height="37" ed:width="87" transform="matrix(1,0,0,1,207,377.25)"><path d="M4,0L83,0C85.7,0,87,1.3,87,4L87,33C87,35.7,85.7,37,83,37L4,37C1.3,37,0,35.7,0,33L0,4C0,1.3,1.3,0,4,0z" fill="#ebecf3" stroke="#ebecf3" stroke-linejoin="round"/><text class="st7"><tspan style="white-space:pre" x="18" y="23.4">方法论</tspan></text></g><g id="106" ed:parentid="102" ed:height="24.5" ed:width="447" transform="matrix(1,0,0,1,305,25.25)"><path d="M0,24.5L447,24.5" fill="none" stroke="#696969" stroke-linejoin="round"/><text class="st8"><tspan style="white-space:pre" x="8" y="16.1">一些列工具和流程的集合，旨在提升代码质量，实现高效、可持续的工作流</tspan></text></g><g id="108" ed:parentid="104" ed:height="24.5" ed:width="83" transform="matrix(1,0,0,1,321,135.5)"><path d="M0,24.5L83,24.5" fill="none" stroke="#696969" stroke-linejoin="round"/><text class="st8"><tspan style="white-space:pre" x="8" y="16.1">系统级架构</tspan></text></g><g id="110" ed:parentid="104" ed:height="24.5" ed:width="83" transform="matrix(1,0,0,1,321,259.5)"><path d="M0,24.5L83,24.5" fill="none" stroke="#696969" stroke-linejoin="round"/><text class="st8"><tspan style="white-space:pre" x="8" y="16.1">应用级架构</tspan></text></g><g id="112" ed:parentid="104" ed:height="24.5" ed:width="83" transform="matrix(1,0,0,1,321,368)"><path d="M0,24.5L83,24.5" fill="none" stroke="#696969" stroke-linejoin="round"/><text class="st8"><tspan style="white-space:pre" x="8" y="16.1">模块级架构</tspan></text></g><g id="114" ed:parentid="104" ed:height="24.5" ed:width="83" transform="matrix(1,0,0,1,321,554)"><path d="M0,24.5L83,24.5" fill="none" stroke="#696969" stroke-linejoin="round"/><text class="st8"><tspan style="white-space:pre" x="8" y="16.1">代码级架构</tspan></text></g><g id="116" ed:parentid="108" ed:height="24.5" ed:width="188" transform="matrix(1,0,0,1,431,89)"><path d="M0,24.5L188,24.5" fill="none" stroke="#696969" stroke-linejoin="round"/><text class="st8"><tspan style="white-space:pre" x="8" y="16.1">与第三方系统集成，如SSO等</tspan></text></g><g id="118" ed:parentid="108" ed:height="24.5" ed:width="270" transform="matrix(1,0,0,1,431,120)"><path d="M0,24.5L270,24.5" fill="none" stroke="#696969" stroke-linejoin="round"/><text class="st8"><tspan style="white-space:pre" x="8" y="16.1">与后端的交互，如何请求，鉴权、api管理等</tspan></text></g><g id="120" ed:parentid="108" ed:height="24.5" ed:width="323" transform="matrix(1,0,0,1,431,151)"><path d="M0,24.5L323,24.5" fill="none" stroke="#696969" stroke-linejoin="round"/><text class="st8"><tspan style="white-space:pre" x="8" y="16.1">应用的表现形式，PC/H5/APP/小程序/桌面客户端等</tspan></text></g><g id="122" ed:parentid="110" ed:height="24.5" ed:width="135" transform="matrix(1,0,0,1,431,213)"><path d="M0,24.5L135,24.5" fill="none" stroke="#696969" stroke-linejoin="round"/><text class="st8"><tspan style="white-space:pre" x="8" y="16.1">确定框架，技术选型</tspan></text></g><g id="124" ed:parentid="110" ed:height="24.5" ed:width="200" transform="matrix(1,0,0,1,431,244)"><path d="M0,24.5L200,24.5" fill="none" stroke="#696969" stroke-linejoin="round"/><text class="st8"><tspan style="white-space:pre" x="8" y="16.1">搭建项目脚手架，设计目录结构</tspan></text></g><g id="126" ed:parentid="108" ed:height="24.5" ed:width="135" transform="matrix(1,0,0,1,431,182)"><path d="M0,24.5L135,24.5" fill="none" stroke="#696969" stroke-linejoin="round"/><text class="st8"><tspan style="white-space:pre" x="8" y="16.1">如何部署，如何跨域</tspan></text></g><g id="128" ed:parentid="110" ed:height="24.5" ed:width="57" transform="matrix(1,0,0,1,431,275)"><path d="M0,24.5L57,24.5" fill="none" stroke="#696969" stroke-linejoin="round"/><text class="st8"><tspan style="white-space:pre" x="8" y="16.1">组件库</tspan></text></g><g id="130" ed:parentid="110" ed:height="24.5" ed:width="70" transform="matrix(1,0,0,1,431,306)"><path d="M0,24.5L70,24.5" fill="none" stroke="#696969" stroke-linejoin="round"/><text class="st8"><tspan style="white-space:pre" x="8" y="16.1">设计语言</tspan></text></g><g id="132" ed:parentid="112" ed:height="24.5" ed:width="70" transform="matrix(1,0,0,1,431,337)"><path d="M0,24.5L70,24.5" fill="none" stroke="#696969" stroke-linejoin="round"/><text class="st8"><tspan style="white-space:pre" x="8" y="16.1">状态管理</tspan></text></g><g id="134" ed:parentid="112" ed:height="24.5" ed:width="83" transform="matrix(1,0,0,1,431,368)"><path d="M0,24.5L83,24.5" fill="none" stroke="#696969" stroke-linejoin="round"/><text class="st8"><tspan style="white-space:pre" x="8" y="16.1">模块化方案</tspan></text></g><g id="136" ed:parentid="112" ed:height="24.5" ed:width="278" transform="matrix(1,0,0,1,431,399)"><path d="M0,24.5L278,24.5" fill="none" stroke="#696969" stroke-linejoin="round"/><text class="st8"><tspan style="white-space:pre" x="8" y="16.1">组件化方案，如何拆分组件，提取公共组件等</tspan></text></g><g id="138" ed:parentid="114" ed:height="24.5" ed:width="96" transform="matrix(1,0,0,1,431,430)"><path d="M0,24.5L96,24.5" fill="none" stroke="#696969" stroke-linejoin="round"/><text class="st8"><tspan style="white-space:pre" x="8" y="16.1">制定编码规范</tspan></text></g><g id="140" ed:parentid="114" ed:height="24.5" ed:width="96" transform="matrix(1,0,0,1,431,523)"><path d="M0,24.5L96,24.5" fill="none" stroke="#696969" stroke-linejoin="round"/><text class="st8"><tspan style="white-space:pre" x="8" y="16.1">设计开发流程</tspan></text></g><g id="142" ed:parentid="114" ed:height="24.5" ed:width="96" transform="matrix(1,0,0,1,431,647)"><path d="M0,24.5L96,24.5" fill="none" stroke="#696969" stroke-linejoin="round"/><text class="st8"><tspan style="white-space:pre" x="8" y="16.1">确保代码质量</tspan></text></g><g id="144" ed:parentid="142" ed:height="24.5" ed:width="29" transform="matrix(1,0,0,1,554,616)"><path d="M0,24.5L29,24.5" fill="none" stroke="#696969" stroke-linejoin="round"/><text class="st8"><tspan style="white-space:pre" x="8" y="16.1">ts</tspan></text></g><g id="146" ed:parentid="142" ed:height="24.5" ed:width="50" transform="matrix(1,0,0,1,554,647)"><path d="M0,24.5L50,24.5" fill="none" stroke="#696969" stroke-linejoin="round"/><text class="st8"><tspan style="white-space:pre" x="8" y="16.1">eslint</tspan></text></g><g id="148" ed:parentid="142" ed:height="24.5" ed:width="70" transform="matrix(1,0,0,1,554,678)"><path d="M0,24.5L70,24.5" fill="none" stroke="#696969" stroke-linejoin="round"/><text class="st8"><tspan style="white-space:pre" x="8" y="16.1">单元测试</tspan></text></g><g id="150" ed:parentid="140" ed:height="24.5" ed:width="86" transform="matrix(1,0,0,1,554,476.5)"><path d="M0,24.5L86,24.5" fill="none" stroke="#696969" stroke-linejoin="round"/><text class="st8"><tspan style="white-space:pre" x="8" y="16.1">git分支协作</tspan></text></g><g id="152" ed:parentid="140" ed:height="24.5" ed:width="96" transform="matrix(1,0,0,1,554,554)"><path d="M0,24.5L96,24.5" fill="none" stroke="#696969" stroke-linejoin="round"/><text class="st8"><tspan style="white-space:pre" x="8" y="16.1">前端开发环境</tspan></text></g><g id="154" ed:parentid="152" ed:height="24.5" ed:width="96" transform="matrix(1,0,0,1,677,523)"><path d="M0,24.5L96,24.5" fill="none" stroke="#696969" stroke-linejoin="round"/><text class="st8"><tspan style="white-space:pre" x="8" y="16.1">环境变量注入</tspan></text></g><g id="156" ed:parentid="152" ed:height="24.5" ed:width="96" transform="matrix(1,0,0,1,677,554)"><path d="M0,24.5L96,24.5" fill="none" stroke="#696969" stroke-linejoin="round"/><text class="st8"><tspan style="white-space:pre" x="8" y="16.1">区分环境构建</tspan></text></g><g id="158" ed:parentid="152" ed:height="24.5" ed:width="187" transform="matrix(1,0,0,1,677,585)"><path d="M0,24.5L187,24.5" fill="none" stroke="#696969" stroke-linejoin="round"/><text class="st8"><tspan style="white-space:pre" x="8" y="16.1">开发环境与生产环境无缝切换</tspan></text></g><g id="160" ed:parentid="150" ed:height="24.5" ed:width="96" transform="matrix(1,0,0,1,667,461)"><path d="M0,24.5L96,24.5" fill="none" stroke="#696969" stroke-linejoin="round"/><text class="st8"><tspan style="white-space:pre" x="8" y="16.1">如何合入代码</tspan></text></g><g id="162" ed:parentid="150" ed:height="24.5" ed:width="64" transform="matrix(1,0,0,1,667,492)"><path d="M0,24.5L64,24.5" fill="none" stroke="#696969" stroke-linejoin="round"/><text class="st8"><tspan style="white-space:pre" x="8" y="16.1">git flow</tspan></text></g></svg>
